<?xml version="1.0" encoding="UTF-8" standalone="no"?>
<svg
   xmlns:dc="http://purl.org/dc/elements/1.1/"
   xmlns:cc="http://creativecommons.org/ns#"
   xmlns:rdf="http://www.w3.org/1999/02/22-rdf-syntax-ns#"
   xmlns:svg="http://www.w3.org/2000/svg"
   xmlns="http://www.w3.org/2000/svg"
   xmlns:sodipodi="http://sodipodi.sourceforge.net/DTD/sodipodi-0.dtd"
   xmlns:inkscape="http://www.inkscape.org/namespaces/inkscape"
   version="1.1"
   x="0"
   y="0"
   viewBox="0 0 700.00001 699.99998"
   xml:space="preserve"
   id="svg12"
   sodipodi:docname="microsoft-store-logo.svg"
   width="700"
   height="700"
   inkscape:version="0.92.4 (5da689c313, 2019-01-14)"
   inkscape:export-filename="C:\Users\suitedoalex\sites\microsoft-store-logo-0.png"
   inkscape:export-xdpi="561.73712"
   inkscape:export-ydpi="561.73712"><metadata
   id="metadata18"><rdf:RDF><cc:Work
       rdf:about=""><dc:format>image/svg+xml</dc:format><dc:type
         rdf:resource="http://purl.org/dc/dcmitype/StillImage" /><dc:title></dc:title></cc:Work></rdf:RDF></metadata><defs
   id="defs16" /><sodipodi:namedview
   pagecolor="#ffffff"
   bordercolor="#666666"
   borderopacity="1"
   objecttolerance="10"
   gridtolerance="10"
   guidetolerance="10"
   inkscape:pageopacity="0"
   inkscape:pageshadow="2"
   inkscape:window-width="1600"
   inkscape:window-height="837"
   id="namedview14"
   showgrid="false"
   inkscape:zoom="0.52965268"
   inkscape:cx="352.51829"
   inkscape:cy="316.63321"
   inkscape:window-x="-8"
   inkscape:window-y="-8"
   inkscape:window-maximized="1"
   inkscape:current-layer="svg12" />
  <path
   d="M 473.35754,237.73724 V 227.5234 c 0,-27.73054 -13.20138,-53.7758 -35.54413,-70.19454 11.36289,15.0654 17.49118,33.42476 17.46564,52.29481 v 28.11357 h -18.12954 v -28.11357 c 0.0256,-48.13268 -39.01683,-87.17502 -87.1495,-87.17502 -48.13268,0 -87.20058,39.04233 -87.20058,87.17502 v 28.11357 h -141.8701 v 306.59363 c 0,18.33382 14.86112,33.22048 33.22048,33.22048 h 391.70038 c 18.33382,0 33.22048,-14.86112 33.22048,-33.22048 V 237.73724 Z M 280.87791,209.62367 c -0.0256,-38.14865 30.89685,-69.09655 69.07104,-69.09655 h 0.0511 c 37.81672,0.8171 68.27947,31.27984 69.1221,69.12209 v 28.11356 H 317.06041 v -10.21383 c -0.0256,-38.14866 30.89684,-69.09656 69.07103,-69.12209 h 0.0511 c 3.19182,0 6.35812,0.22981 9.49886,0.71497 -8.65623,-3.9834 -18.05295,-6.0517 -27.57735,-6.07724 -22.34275,-0.0255 -43.33217,10.80112 -56.2782,29.00727 -8.40086,13.68654 -12.84388,29.41584 -12.81835,45.45155 v 10.21384 h -18.12957 z"
   id="path2"
   inkscape:connector-curvature="0"
   style="fill:#e8e8e8;stroke-width:0.25534576"
   inkscape:export-filename="C:\Users\suitedoalex\sites\microsoft-store-logo-4.png"
   inkscape:export-xdpi="83.816925"
   inkscape:export-ydpi="83.816925" />
  <rect
   x="253.93893"
   y="311.53217"
   width="88.656044"
   height="88.68158"
   id="rect4"
   style="fill:#f25022;stroke-width:0.25534576"
   inkscape:export-filename="C:\Users\suitedoalex\sites\microsoft-store-logo-4.png"
   inkscape:export-xdpi="83.816925"
   inkscape:export-ydpi="83.816925" />
  <rect
   x="357.37952"
   y="311.53217"
   width="88.656044"
   height="88.68158"
   id="rect6"
   style="fill:#7fba00;stroke-width:0.25534576"
   inkscape:export-filename="C:\Users\suitedoalex\sites\microsoft-store-logo-4.png"
   inkscape:export-xdpi="83.816925"
   inkscape:export-ydpi="83.816925" />
  <rect
   x="253.93893"
   y="414.97272"
   width="88.656044"
   height="88.656044"
   id="rect8"
   style="fill:#00a4ef;stroke-width:0.25534576"
   inkscape:export-filename="C:\Users\suitedoalex\sites\microsoft-store-logo-4.png"
   inkscape:export-xdpi="83.816925"
   inkscape:export-ydpi="83.816925" />
  <rect
   x="357.37952"
   y="414.97272"
   width="88.656044"
   height="88.656044"
   id="rect10"
   style="fill:#ffb900;stroke-width:0.25534576"
   inkscape:export-filename="C:\Users\suitedoalex\sites\microsoft-store-logo-4.png"
   inkscape:export-xdpi="83.816925"
   inkscape:export-ydpi="83.816925" />
</svg>